<svg xmlns="http://www.w3.org/2000/svg" xmlns:xlink="http://www.w3.org/1999/xlink" version="1.1" style="" xml:space="preserve" width="480" height="480"><rect id="backgroundrect" width="100%" height="100%" x="0" y="0" fill="none" stroke="none"/>


















<g class="currentLayer" style=""><title>Layer 1</title><path d="M278.944,17.577c-5.568-2.656-12.128-1.952-16.928,1.92L106.368,144.009H32c-17.632,0-32,14.368-32,32v128  c0,17.664,14.368,32,32,32h74.368l155.616,124.512c2.912,2.304,6.464,3.488,10.016,3.488c2.368,0,4.736-0.544,6.944-1.6  c5.536-2.656,9.056-8.256,9.056-14.4v-416C288,25.865,284.48,20.265,278.944,17.577z" id="svg_1" class="" fill="#3a47ff" fill-opacity="1"/><path d="M368.992,126.857c-6.304-6.208-16.416-6.112-22.624,0.128c-6.208,6.304-6.144,16.416,0.128,22.656  C370.688,173.513,384,205.609,384,240.009s-13.312,66.496-37.504,90.368c-6.272,6.176-6.336,16.32-0.128,22.624  c3.136,3.168,7.264,4.736,11.36,4.736c4.064,0,8.128-1.536,11.264-4.64C399.328,323.241,416,283.049,416,240.009  S399.328,156.777,368.992,126.857z" id="svg_2" class="" fill="#3a47ff" fill-opacity="1"/><path d="M414.144,81.769c-6.304-6.24-16.416-6.176-22.656,0.096c-6.208,6.272-6.144,16.416,0.096,22.624  C427.968,140.553,448,188.681,448,240.009s-20.032,99.424-56.416,135.488c-6.24,6.24-6.304,16.384-0.096,22.656  c3.168,3.136,7.264,4.704,11.36,4.704c4.064,0,8.16-1.536,11.296-4.64C456.64,356.137,480,299.945,480,240.009  S456.64,123.881,414.144,81.769z" id="svg_3" class="" fill="#3a47ff" fill-opacity="1"/><g id="svg_4">
</g><g id="svg_5">
</g><g id="svg_6">
</g><g id="svg_7">
</g><g id="svg_8">
</g><g id="svg_9">
</g><g id="svg_10">
</g><g id="svg_11">
</g><g id="svg_12">
</g><g id="svg_13">
</g><g id="svg_14">
</g><g id="svg_15">
</g><g id="svg_16">
</g><g id="svg_17">
</g><g id="svg_18">
</g></g></svg>